# xmcd CD database file
#
# Track frame offsets:
#	150
#	22211
#	38898
#	78195
#	93704
#	107467
#	124080
#	142332
#	160624
#	180627
#	197420
#
# Disc length: 2864 seconds
#
# Revision: 4
# Processed by: cddbd v1.5.1PL2 Copyright (c) Steve Scherf et al.
# Submitted via: CDex 1.51
#
DISCID=8e0b2e0b
DTITLE=Julien Clerc - Si j'étais elle
DYEAR=1900
DGENRE=Jazz
TTITLE0=Si j'étais elle
TTITLE1=Aussi vivant +J'oublie
TTITLE2=Se contenter d'ici bas
TTITLE3=Tu t'es en allée
TTITLE4=On serait seuls au monde
TTITLE5=Quelques mots en ton nom
TTITLE6=Silence caresse
TTITLE7=Je l'aime comme je respire
TTITLE8=L'horizon chimérique
TTITLE9=Désobéissante
TTITLE10=Va-t-en de moi
EXTD=
EXTT0=
EXTT1=
EXTT2=
EXTT3=
EXTT4=
EXTT5=
EXTT6=
EXTT7=
EXTT8=
EXTT9=
EXTT10=
PLAYORDER=
